<svg width="28" height="34" viewBox="0 0 28 34" fill="none" xmlns="http://www.w3.org/2000/svg">
<path d="M27.6975 16.7731L25.5032 13.3895C25.3249 13.1086 25.226 12.7825 25.2167 12.4473C25.0867 9.1013 23.7024 5.93661 21.3537 3.61636C19.005 1.29612 15.8737 0.000317461 12.6165 0C11.7675 0.000930083 10.9204 0.0855638 10.0871 0.252977C6.84451 0.933162 3.99188 2.8968 2.14506 5.72022C0.298485 8.54356 -0.394273 12.0003 0.216724 15.3441C0.827729 18.6876 2.69329 21.6505 5.41082 23.5925V29.6295C5.41082 30.612 5.79021 31.5538 6.46605 32.2486C7.14159 32.943 8.05809 33.3333 9.01349 33.3333H16.2195C17.1749 33.3333 18.0914 32.943 18.7669 32.2486C19.4427 31.5538 19.8221 30.612 19.8221 29.6295C19.8221 29.1384 20.0121 28.6675 20.3499 28.3203C20.6877 27.9728 21.1458 27.7778 21.6238 27.7778C22.5792 27.7778 23.4957 27.3874 24.1712 26.693C24.8471 25.9982 25.2265 25.0564 25.2265 24.0739V21.5147C25.2265 21.1709 25.3196 20.8336 25.4955 20.5412C25.6716 20.2486 25.9231 20.0123 26.2223 19.8586L27.004 19.4568L27.0043 19.4565C27.4663 19.219 27.807 18.789 27.9398 18.2756C28.0722 17.7622 27.9841 17.215 27.6976 16.7729L27.6975 16.7731ZM25.4169 18.202L25.4166 18.2023C24.8168 18.508 24.3122 18.9804 23.9603 19.5658C23.6081 20.1514 23.4226 20.8267 23.425 21.5149V24.0741C23.4244 24.5652 23.2344 25.0358 22.8966 25.383C22.5592 25.7302 22.101 25.9256 21.6237 25.9262C20.6683 25.9271 19.7527 26.3177 19.0772 27.0122C18.4016 27.7064 18.0219 28.6479 18.0207 29.6297C18.0201 30.1208 17.8301 30.5914 17.4923 30.9386C17.1549 31.2858 16.6967 31.4811 16.2194 31.4817H9.0134C8.536 31.4811 8.07791 31.2858 7.74045 30.9386C7.40268 30.5914 7.21269 30.1207 7.21208 29.6297V22.6273L6.44184 22.0742C4.11335 20.4113 2.51406 17.8743 1.98868 15.0104C1.46302 12.1461 2.05382 9.18479 3.6329 6.7643C5.21228 4.34366 7.65356 2.6581 10.4305 2.07119C11.1507 1.92641 11.8827 1.85325 12.6164 1.85201C15.4111 1.84302 18.0997 2.95042 20.1149 4.94107C22.13 6.93139 23.3141 9.64902 23.4166 12.5198C23.4389 13.1957 23.6422 13.8523 24.0044 14.4168L26.1987 17.8004L25.4169 18.202ZM19.4475 10.7658L18.4688 10.9435C18.2007 10.1012 17.7664 9.32514 17.1932 8.66355L17.8298 7.88323C18.1471 7.49074 18.0961 6.90886 17.7158 6.58116C17.3355 6.25346 16.7691 6.30338 16.4489 6.69308L15.8165 7.46813C15.0824 7.00248 14.2621 6.69835 13.4081 6.57495V5.55558C13.4081 5.04436 13.0045 4.62955 12.5072 4.62955C12.0096 4.62955 11.6064 5.04436 11.6064 5.55558V6.57495C10.7524 6.69834 9.932 7.00247 9.19801 7.46813L8.5656 6.69308C8.24532 6.30338 7.67898 6.25347 7.29867 6.58116C6.91838 6.90885 6.86741 7.49076 7.18467 7.88323L7.82131 8.66355H7.82161C7.248 9.32513 6.8137 10.1011 6.54565 10.9435L5.567 10.7658C5.07754 10.6769 4.61036 11.0129 4.52382 11.5164C4.43756 12.0196 4.76418 12.4998 5.25394 12.5888L6.2217 12.7642C6.21959 12.8318 6.2021 12.8951 6.2021 12.963C6.20451 13.7864 6.36013 14.6015 6.6608 15.3644L5.81665 15.8657H5.81695C5.4638 16.0753 5.29159 16.5025 5.39745 16.9074C5.503 17.3123 5.86037 17.5935 6.26808 17.5928C6.42611 17.5928 6.58113 17.55 6.71744 17.4679L7.57665 16.9579C8.11075 17.653 8.77787 18.2281 9.53664 18.6472L9.19646 19.6074C9.11413 19.8383 9.12438 20.0932 9.22541 20.3164C9.32614 20.5393 9.5092 20.712 9.73388 20.796C9.95886 20.88 10.2068 20.8688 10.4236 20.7644C10.6401 20.6602 10.8075 20.4717 10.8886 20.2404L11.2192 19.3076H11.2195C12.0687 19.4902 12.9457 19.4902 13.7952 19.3076L14.1258 20.2404C14.2069 20.4717 14.3743 20.6602 14.5911 20.7644C14.8076 20.8688 15.0558 20.88 15.2805 20.796C15.5055 20.712 15.6882 20.5393 15.7893 20.3164C15.89 20.0932 15.9006 19.8383 15.8179 19.6074L15.4777 18.6472C16.2368 18.2281 16.9039 17.653 17.4377 16.9579L18.2969 17.4679C18.4333 17.5501 18.5886 17.5928 18.7463 17.5928C19.154 17.5935 19.5114 17.3123 19.6172 16.9074C19.7228 16.5025 19.5509 16.0753 19.1977 15.8657L18.3536 15.3644C18.6543 14.6014 18.8099 13.7864 18.8123 12.963C18.8123 12.8951 18.7948 12.8318 18.7927 12.7642L19.7605 12.5888C19.9957 12.5463 20.2047 12.4093 20.3416 12.2081C20.4785 12.0069 20.5322 11.7579 20.4906 11.5164C20.4517 11.273 20.3193 11.0563 20.1226 10.915C19.9263 10.7736 19.6826 10.72 19.4474 10.7659L19.4475 10.7658ZM12.5071 17.5928C11.3126 17.5928 10.1672 17.1049 9.32246 16.2368C8.478 15.3685 8.00365 14.191 8.00365 12.963C8.00365 11.7353 8.47803 10.5575 9.32246 9.68948C10.1672 8.82114 11.3126 8.33344 12.5071 8.33344C13.7014 8.33344 14.8471 8.8211 15.6915 9.68948C16.5362 10.5576 17.0106 11.7353 17.0106 12.963C17.0094 14.1907 16.5345 15.3672 15.6901 16.2352C14.8459 17.103 13.7011 17.5913 12.5071 17.5928V17.5928Z" fill="black"/>
</svg>
