<svg width="33" height="25" viewBox="0 0 33 25" fill="none" xmlns="http://www.w3.org/2000/svg">
<path d="M30.1583 23.3913C30.3397 23.5701 30.4504 23.8146 30.4504 24.0593C30.4504 24.3039 30.3397 24.5484 30.1583 24.7273C29.967 24.8964 29.705 25 29.4432 25C29.1812 25 28.9193 24.8964 28.7279 24.7273C28.5465 24.5484 28.4358 24.3039 28.4358 24.0593C28.4358 23.8146 28.5465 23.5701 28.7279 23.3913C29.1106 23.0433 29.7856 23.0433 30.1583 23.3913ZM15.9812 0.126481C16.3029 -0.0421604 16.6962 -0.0421604 17.0179 0.126481L32.4649 8.22835C33.1784 8.60246 33.1784 9.55595 32.4649 9.93008L30.3075 11.0599L30.3135 11.127V20.9207C30.3135 21.4603 29.8419 21.8979 29.2603 21.8979C28.7271 21.8979 28.2864 21.5304 28.2167 21.0533L28.2071 20.9207L28.2045 12.1636L26.181 13.225L26.1811 20.2777C26.1811 20.6133 25.9758 20.92 25.6517 21.0685C19.8901 23.7097 13.1091 23.7097 7.34795 21.0685C7.06432 20.9385 6.87165 20.6875 6.82796 20.402L6.81854 20.2777L6.81741 13.225L0.535023 9.9302C-0.130775 9.58088 -0.175181 8.72712 0.401868 8.31071L0.535023 8.22849L15.9812 0.126481ZM24.2785 14.2225L17.0179 18.0321C16.6962 18.2008 16.3029 18.2008 15.9812 18.0321L8.71914 14.2225L8.71876 19.7172L9.18113 19.9079C13.853 21.7439 19.1466 21.7439 23.8187 19.9079L24.2797 19.7172L24.2785 14.2225ZM16.4996 2.09933L3.19276 9.07872L16.4996 16.0572L26.0953 11.024L18.1292 8.11961C17.6329 7.93875 17.3678 7.44687 17.4908 6.97921L17.5341 6.8525C17.729 6.39198 18.259 6.14584 18.763 6.26L18.8995 6.30029L28.4576 9.78397L29.8048 9.07912L16.4996 2.09933Z" fill="black"/>
</svg>
